# xmcd
#
# Track frame offsets: 
#        150
#        18326
#        34384
#        55111
#        59660
#        73477
#        88100
#        98213
#        114639
#        136855
#        159628
#        182786
#
# Disc length: 2677 seconds
#
# Revision: 0
# Processed by: cddbd v1.5.2PL0 Copyright (c) Steve Scherf et al.
# Submitted via: ExactAudioCopy v1.0b3
#
DISCID=af0a730c
DTITLE=Using Bridge - And I Will Be Heard
DYEAR=2012
DGENRE=Rock
TTITLE0=Black Rebel
TTITLE1=Sick and Sober
TTITLE2=Not Like You Know
TTITLE3=One Mitune to Go
TTITLE4=Too Fast
TTITLE5=Drop
TTITLE6=In You
TTITLE7=In Me
TTITLE8=Fire
TTITLE9=Only for My Eyes
TTITLE10=Gimme Shelter
TTITLE11=Polvere e Cenere
EXTD=
EXTT0=
EXTT1=
EXTT2=
EXTT3=
EXTT4=
EXTT5=
EXTT6=
EXTT7=
EXTT8=
EXTT9=
EXTT10=
EXTT11=
PLAYORDER=
